<svg xmlns="http://www.w3.org/2000/svg" fill="none" viewBox="0 0 34 36">  <path fill="#FDC61B" fill-rule="evenodd" d="M32.451 4.07C32.1 3.905 23.81 0 16.923 0h-.243C9.764 0 1.473 3.904 1.12 4.07l-.45.214.014.499c0 .029.079 2.956.397 6.47.43 4.755 1.071 8.273 1.906 10.457 3.682 9.63 12.459 13.686 13.449 14.12l.102.043.311.127.303-.14c6.468-2.999 10.987-7.76 13.43-14.15.836-2.184 1.477-5.702 1.907-10.457.318-3.514.396-6.441.397-6.47l.013-.499-.449-.213ZM16.822 34.323c-1.052-.487-4.602-2.297-7.853-5.852l7.82-10.32 7.982 10.312c-.165.186-.332.37-.503.55-2.023 2.131-4.527 3.917-7.446 5.312v-.002Zm12.332-13.159a25.013 25.013 0 0 1-1.417 3.07l-10.983-14.17-10.84 14.244a22.22 22.22 0 0 1-1.495-3.144C2.764 16.833 2.32 7.52 2.234 5.248c1.834-.815 8.857-3.75 14.563-3.715h.125c5.657 0 12.597 2.907 14.418 3.716-.085 2.27-.53 11.585-2.185 15.914" clip-rule="evenodd"></path>  <path fill="#FDC61B" fill-rule="evenodd" d="m14.428 23.388-2.163 2.703h9.012l-2.162-2.703h-4.687Z" clip-rule="evenodd"></path>  <path fill="#FDC61B" fill-rule="evenodd" d="m8.622 8.39-.683-1.585-.682 1.585-1.718.159 1.296 1.139-.38 1.682 1.484-.88 1.484.88-.38-1.682 1.296-1.14-1.717-.159Z" clip-rule="evenodd"></path>  <path fill="#FDC61B" fill-rule="evenodd" d="m16.089 5.055-1.718.16 1.296 1.138-.379 1.683 1.483-.881 1.484.88-.38-1.682 1.296-1.139-1.717-.159-.683-1.584-.682 1.584Z" clip-rule="evenodd"></path>  <path fill="#FDC61B" fill-rule="evenodd" d="m24.21 11.37 1.484-.88 1.483.88-.38-1.682 1.297-1.139-1.718-.16-.682-1.584-.682 1.585-1.718.16 1.296 1.138-.38 1.682Z" clip-rule="evenodd"></path></svg>