<svg class="h-5 md:h-8 lg:h-9 w-auto fill-current" xmlns="http://www.w3.org/2000/svg" fill="none" viewBox="0 0 289 36">
  <path fill="#fff" d="M61.282 26.026h-7.589l-1.411 3.513H46.54l8.028-20.916h5.927l7.874 20.916h-5.801l-1.286-3.513Zm-1.443-4.14-2.352-6.773-2.289 6.774h4.641Z"></path>
  <path fill="#fff" d="M82.87 8.625V24.93h6.523v4.608H77.445V8.625h5.426Z"></path>
  <path fill="#fff" d="M103.06 22.61v6.93h-5.425V8.624h8.655c1.817 0 3.7.344 5.3 1.88 1.63 1.569 1.944 3.325 1.944 5.081 0 1.662-.22 3.607-1.85 5.206-1.631 1.599-3.574 1.817-5.206 1.817l-3.418.002Zm0-4.39h1.817c.565 0 1.632-.06 2.29-.658.658-.565.69-1.411.69-1.913 0-.565-.061-1.317-.628-1.881-.627-.66-1.63-.753-2.32-.753h-1.85l.001 5.206Z"></path>
  <path fill="#fff" d="M128.506 16.433h7.84V8.625h5.457v20.914h-5.457v-8.467h-7.84v8.467h-5.424V8.625h5.424v7.808Z"></path>
  <path fill="#fff" d="M165.015 26.026h-7.591l-1.411 3.513h-5.739l8.028-20.916h5.925l7.874 20.916h-5.802l-1.284-3.513Zm-1.443-4.14-2.352-6.773-2.289 6.774h4.641Z"></path>
  <path fill="#fff" d="M206.189 12.858c-.658-.659-1.662-1.442-2.728-1.944-1.098-.502-2.383-.816-3.607-.816-4.829 0-8.404 3.889-8.404 8.718 0 5.676 4.61 8.53 8.436 8.53 1.411 0 2.791-.408 3.888-.972a9.494 9.494 0 0 0 2.415-1.757v2.886a10.892 10.892 0 0 1-6.303 2.036c-6.209 0-10.819-4.704-10.819-10.756 0-6.239 4.673-10.882 10.944-10.882 1.254 0 3.669.157 6.178 2.07v2.887Z"></path>
  <path fill="#fff" d="M220.472 8.625c1.411 0 3.513.093 5.079 1.16 1.224.815 2.29 2.414 2.29 4.64 0 3.2-2.101 5.552-5.27 5.77l6.647 9.344h-2.822l-6.366-9.157h-.595v9.157h-2.321V8.625h3.358Zm-1.035 9.69h1.474c2.885 0 4.61-1.38 4.61-3.825 0-1.16-.346-2.32-1.662-3.073-.942-.533-2.008-.596-3.011-.596h-1.411v7.495Z"></path>
  <path fill="#fff" d="M250.371 10.82h-8.53v6.209h8.279v2.195h-8.279v8.122h8.53v2.193h-10.85V8.625h10.85v2.195Z"></path>
  <path fill="#fff" d="m262.03 7.527 5.519 15.68L274.1 6.462l6.21 16.747 6.115-15.68h2.576l-8.783 22.01-6.146-16.745-6.586 16.745-8.028-22.014 2.572.002Z"></path>
  <path fill="#FDC61B" fill-rule="evenodd" d="M32.451 4.07C32.1 3.905 23.81 0 16.923 0h-.243C9.764 0 1.473 3.904 1.12 4.07l-.45.214.014.499c0 .029.079 2.956.397 6.47.43 4.755 1.071 8.273 1.906 10.457 3.682 9.63 12.459 13.686 13.449 14.12l.102.043.311.127.303-.14c6.468-2.999 10.987-7.76 13.43-14.15.836-2.184 1.477-5.702 1.907-10.457.318-3.514.396-6.441.397-6.47l.013-.499-.449-.213ZM16.822 34.323c-1.052-.487-4.602-2.297-7.853-5.852l7.82-10.32 7.982 10.312c-.165.186-.332.37-.503.55-2.023 2.131-4.527 3.917-7.446 5.312v-.002Zm12.332-13.159a25.013 25.013 0 0 1-1.417 3.07l-10.983-14.17-10.84 14.244a22.22 22.22 0 0 1-1.495-3.144C2.764 16.833 2.32 7.52 2.234 5.248c1.834-.815 8.857-3.75 14.563-3.715h.125c5.657 0 12.597 2.907 14.418 3.716-.085 2.27-.53 11.585-2.185 15.914" clip-rule="evenodd"></path>
  <path fill="#FDC61B" fill-rule="evenodd" d="m14.428 23.388-2.163 2.703h9.012l-2.162-2.703h-4.687Z" clip-rule="evenodd"></path>
  <path fill="#FDC61B" fill-rule="evenodd" d="m8.622 8.39-.683-1.585-.682 1.585-1.718.159 1.296 1.139-.38 1.682 1.484-.88 1.484.88-.38-1.682 1.296-1.14-1.717-.159Z" clip-rule="evenodd"></path>
  <path fill="#FDC61B" fill-rule="evenodd" d="m16.089 5.055-1.718.16 1.296 1.138-.379 1.683 1.483-.881 1.484.88-.38-1.682 1.296-1.139-1.717-.159-.683-1.584-.682 1.584Z" clip-rule="evenodd"></path>
  <path fill="#FDC61B" fill-rule="evenodd" d="m24.21 11.37 1.484-.88 1.483.88-.38-1.682 1.297-1.139-1.718-.16-.682-1.584-.682 1.585-1.718.16 1.296 1.138-.38 1.682Z" clip-rule="evenodd"></path>
</svg>
