<svg fill="#FFC926" xmlns="http://www.w3.org/2000/svg" xmlns:xlink="http://www.w3.org/1999/xlink" xml:space="preserve" width="1.70666in" height="1.70666in" version="1.1" style="shape-rendering:geometricPrecision; text-rendering:geometricPrecision; image-rendering:optimizeQuality; fill-rule:evenodd; clip-rule:evenodd" viewBox="0 0 1707 1707">
  <g id="Layer_x0020_1">
  <metadata id="CorelCorpID_0Corel-Layer"/>
    <path class="fil0" d="M1112 1326l-29 0c10,64 61,115 125,124 0,-18 -5,-51 23,-51 27,0 23,33 23,51 64,-9 115,-60 124,-124 -18,0 -51,4 -51,-23 0,-27 33,-23 51,-23 -9,-64 -60,-115 -124,-124 0,18 4,51 -23,51 -28,0 -23,-33 -23,-51 -64,9 -115,60 -125,124 19,0 52,-4 52,23 0,13 -11,23 -23,23zm155 52c-16,0 -41,-32 -52,-43 -4,-4 -7,-10 -7,-16l0 -68c0,-30 46,-30 46,0l0 59c4,11 54,36 29,61 -4,5 -10,7 -16,7zm-36 120c-107,0 -195,-88 -195,-195 0,-107 88,-195 195,-195 107,0 195,88 195,195 0,107 -88,195 -195,195zm70 208l-140 0c-12,0 -21,-8 -23,-19l-15 -119c-24,-10 -47,-23 -68,-39l-110 46c-10,5 -23,0 -28,-9l-71 -122 -735 0c-13,0 -23,-10 -23,-23l0 -1398c0,-13 10,-23 23,-23l1120 0c12,0 23,10 23,23l0 877c29,0 66,-8 70,19l15 119c24,9 47,23 68,39l110 -46c10,-5 22,0 28,9l70 122c6,10 4,23 -5,30l-95 72c3,26 3,52 0,78l95 72c9,7 11,20 5,30l-70 122c-6,9 -18,14 -28,9l-110 -46c-21,16 -44,29 -68,39l-15 119c-2,11 -11,19 -23,19zm-428 -308l74 -56c-3,-26 -3,-52 0,-78l-95 -72c-9,-8 -11,-20 -6,-30l71 -122c5,-9 18,-14 28,-9l110 46c10,-8 58,-39 68,-39 3,-24 11,-110 17,-125 7,-19 44,-13 68,-13l0 -854 -1074 0 0 1352 739 0zm308 263l100 0 15 -112c3,-25 40,-19 92,-63 7,-6 16,-7 24,-4l104 44 50 -88c-129,-98 -94,-57 -94,-135 0,-78 -35,-37 94,-135l-50 -88 -104 44c-24,10 -37,-26 -101,-48 -8,-3 -14,-10 -15,-19l-15 -112 -100 0 -15 115c-3,20 -45,19 -92,60 -1,1 -2,2 -3,2l0 0 -1 1 0 0 -1 0 -1 1 -1 0 0 0 0 0 -1 1 -1 0 0 0 -2 0 0 0 -1 1 0 0 -1 0c0,0 -1,0 -1,0l0 0c-12,0 -96,-38 -114,-46l-50 88c14,11 87,63 94,73 9,11 -1,42 0,75 4,61 22,34 -59,96l-35 26 50 88 104 -44c24,-10 37,26 101,48 8,3 14,11 15,19l15 112zm-171 -1269l-681 0c-13,0 -23,-10 -23,-23l0 -170c0,-13 10,-23 23,-23l681 0c12,0 22,10 22,23l0 170c0,13 -10,23 -22,23zm-658 -46l635 0 0 -124 -635 0 0 124zm749 221l-861 0c-29,0 -29,-45 0,-45l861 0c30,0 30,45 0,45zm0 175l-861 0c-29,0 -29,-45 0,-45l861 0c30,0 30,45 0,45zm-61 175l-800 0c-29,0 -29,-45 0,-45l800 0c30,0 30,45 0,45zm-274 176l-526 0c-29,0 -29,-46 0,-46l526 0c29,0 29,46 0,46zm-91 175l-435 0c-29,0 -29,-45 0,-45l435 0c29,0 29,45 0,45z"/>
 </g>
</svg>
